<svg width="186" height="156" viewBox="0 0 186 156" fill="none" xmlns="http://www.w3.org/2000/svg">
<g clip-path="url(#clip0_29_35336)">
<path d="M151.482 75.2913C151.482 77.4834 151.39 79.6532 151.204 81.8008C151.058 83.4773 150.859 85.1386 150.607 86.785C150.338 88.5281 150.01 90.2502 149.62 91.9515V91.9534C149.366 93.073 149.086 94.1834 148.782 95.2847C147.899 98.4862 146.8 101.625 145.494 104.68C145.21 105.345 144.917 106.005 144.614 106.661C143.47 109.143 142.188 111.561 140.776 113.904C136.815 120.481 131.87 126.421 126.111 131.521C125.488 132.072 124.856 132.613 124.215 133.146C110.619 144.437 93.4578 150.61 75.7411 150.583C33.9099 150.583 0 116.874 0 75.2913C0 33.7085 33.9099 -2.88164e-05 75.7411 -2.88164e-05C92.8478 -0.0268418 109.455 5.72915 122.837 16.3229C123.464 16.817 124.083 17.3222 124.695 17.8385C127.679 20.3541 130.463 23.0941 133.024 26.0343H133.026C144.954 39.7025 151.509 57.1967 151.482 75.2913Z" fill="#F2F2F2"/>
<path d="M22.3586 88.2969C15.1433 84.0281 9.69756 76.0502 10.4046 67.7334C17.0011 74.0093 25.6181 77.7636 34.7311 78.3319C38.2464 78.5385 42.1779 78.4043 44.7655 80.7786C46.3757 82.2559 47.1252 84.48 47.2481 86.6546C47.371 88.8293 46.9328 90.9924 46.4968 93.127L46.6468 93.6499C38.2504 93.6813 29.5738 92.5658 22.3586 88.2969Z" fill="#E6E6E6"/>
<path d="M10.5807 67.7245C13.4717 74.007 18.2805 79.2243 24.3242 82.6354C25.6235 83.3583 27.0048 83.9793 28.4726 84.2673C29.9056 84.5372 31.3851 84.4207 32.7574 83.9299C34.0462 83.4978 35.3142 82.9075 36.6862 82.7944C38.1324 82.6752 39.4712 83.2298 40.5232 84.2012C41.8102 85.3898 42.5908 86.9672 43.3003 88.5361C44.0881 90.2781 44.8785 92.0999 46.3889 93.3527C46.5719 93.5044 46.3243 93.7778 46.1415 93.6263C43.5138 91.4467 43.0849 87.7967 40.9844 85.2298C40.0043 84.032 38.6551 83.1206 37.0523 83.1447C35.6507 83.1657 34.3426 83.7733 33.0415 84.222C31.6753 84.6931 30.3066 84.9144 28.8643 84.7071C27.3888 84.4951 25.9802 83.9265 24.668 83.2397C21.7042 81.6604 19.0087 79.6276 16.6801 77.2159C14.0072 74.4781 11.8251 71.3059 10.2282 67.8366C10.1294 67.6219 10.4826 67.5111 10.5807 67.7245H10.5807Z" fill="white"/>
<path d="M22.3132 81.6509C21.5998 82.5812 20.577 83.2291 19.4274 83.479C18.2779 83.7288 17.0764 83.5644 16.0375 83.0149C15.8277 82.903 15.9928 82.5736 16.2029 82.6857C17.1693 83.1991 18.2885 83.3522 19.3585 83.1174C20.4285 82.8826 21.3788 82.2752 22.0379 81.4051C22.1814 81.2161 22.4558 81.4631 22.3132 81.6509L22.3132 81.6509Z" fill="white"/>
<path d="M32.1325 84.2345C31.8322 81.862 30.6435 79.6891 28.8032 78.1492C28.6208 77.9968 28.8683 77.7234 29.0506 77.8756C30.9626 79.4816 32.195 81.7453 32.502 84.2149C32.5311 84.4503 32.1614 84.4686 32.1325 84.2345V84.2345Z" fill="white"/>
<path d="M14.466 74.3054C14.8174 74.0026 15.0878 73.6178 15.2527 73.1855C15.4175 72.7533 15.4718 72.287 15.4107 71.8287C15.3786 71.5938 15.7483 71.5757 15.7802 71.8091C15.8454 72.3158 15.7848 72.8306 15.6037 73.3086C15.4226 73.7866 15.1265 74.2133 14.7412 74.5513C14.7076 74.5862 14.6619 74.607 14.6133 74.6096C14.5648 74.6122 14.5171 74.5963 14.4799 74.5652C14.4436 74.5324 14.4218 74.4868 14.4192 74.4382C14.4166 74.3895 14.4334 74.3418 14.466 74.3054V74.3054Z" fill="white"/>
<path d="M33.76 51.6207C33.7842 51.7668 33.8085 51.9129 33.8355 52.0604C34.1715 54.0233 34.6673 55.9557 35.3182 57.8387C35.3661 57.9851 35.417 58.1328 35.4691 58.2775C37.0857 62.7975 39.5325 66.9798 42.685 70.6119C43.9408 72.0561 45.3053 73.4032 46.7667 74.6415C48.785 76.3517 51.1103 78.0462 52.4043 80.2543C52.5419 80.4832 52.6652 80.7203 52.7733 80.9643L47.2772 93.4274C47.2504 93.4495 47.2264 93.4729 47.1996 93.4952L47.003 94.0028C46.9231 93.9441 46.8416 93.8816 46.7617 93.823C46.7153 93.7891 46.67 93.7525 46.6236 93.7187C46.593 93.6953 46.5624 93.6717 46.5335 93.6523C46.5233 93.6446 46.5131 93.6367 46.5057 93.6301C46.4768 93.6107 46.452 93.5897 46.4259 93.5715C45.969 93.2233 45.5138 92.8713 45.0603 92.5155C45.0575 92.5142 45.0575 92.5142 45.0558 92.5102C41.6072 89.7903 38.3567 86.7603 35.6721 83.3362C35.5914 83.2332 35.5077 83.129 35.4295 83.0203C34.2281 81.4702 33.1561 79.825 32.2242 78.1013C31.7171 77.1559 31.2583 76.1855 30.8499 75.1939C29.7994 72.6297 29.1612 69.9173 28.9586 67.156C28.5557 61.6514 29.9282 56.0799 33.4851 51.9347C33.5762 51.8287 33.6661 51.7254 33.76 51.6207Z" fill="#E6E6E6"/>
<path d="M33.907 51.718C32.4101 58.4645 33.0898 65.5083 35.8494 71.849C36.4489 73.2038 37.1757 74.5263 38.1732 75.6348C39.1539 76.7079 40.4058 77.5003 41.7988 77.9297C43.0895 78.3561 44.4594 78.6437 45.6234 79.3745C46.8503 80.1448 47.5834 81.389 47.8349 82.7942C48.1427 84.5134 47.8106 86.2401 47.4268 87.9175C47.0008 89.7798 46.5285 91.7075 46.9757 93.6117C47.0299 93.8424 46.6666 93.9125 46.6125 93.6821C45.8344 90.3692 47.7027 87.1981 47.5802 83.8914C47.5231 82.3485 46.9979 80.8133 45.7036 79.8732C44.5718 79.0512 43.1593 78.7535 41.8487 78.333C40.4725 77.8915 39.2457 77.2491 38.2196 76.2203C37.1699 75.168 36.3896 73.8709 35.7578 72.5373C34.348 69.5025 33.4269 66.2661 33.0284 62.9469C32.5524 59.1611 32.7314 55.3223 33.5576 51.5966C33.6088 51.366 33.9579 51.489 33.907 51.718Z" fill="white"/>
<path d="M34.8398 69.8593C33.7067 70.1751 32.4977 70.0803 31.4284 69.5918C30.3592 69.1033 29.4995 68.2528 29.0029 67.1924C28.9031 66.9775 29.2344 66.8133 29.3343 67.0285C29.795 68.0168 30.5958 68.8089 31.5924 69.2618C32.589 69.7147 33.7156 69.7986 34.7689 69.4982C34.9979 69.4332 35.0674 69.7947 34.8398 69.8593H34.8398Z" fill="white"/>
<path d="M41.1157 77.7993C42.3129 75.7253 42.6798 73.2789 42.1431 70.948C42.0898 70.7171 42.4531 70.6469 42.5063 70.8775C43.0603 73.3042 42.6733 75.8492 41.4227 78.0048C41.3033 78.2101 40.997 78.0035 41.1157 77.7993Z" fill="white"/>
<path d="M33.0235 59.2979C33.4875 59.2665 33.9364 59.1211 34.3299 58.8746C34.7233 58.6281 35.0491 58.2883 35.2778 57.8858C35.3945 57.679 35.7007 57.8859 35.5847 58.0913C35.3299 58.5349 34.9697 58.9097 34.5356 59.183C34.1015 59.4562 33.6066 59.6197 33.0943 59.659C33.0463 59.6667 32.9972 59.656 32.9569 59.629C32.9166 59.602 32.8881 59.5608 32.8773 59.5137C32.8681 59.4658 32.8784 59.4163 32.9057 59.3759C32.9331 59.3355 32.9754 59.3075 33.0235 59.2979V59.2979Z" fill="white"/>
<path d="M52.4667 17.4503L61.7371 125.327L43.1963 126.713V18.8228C45.4056 17.3696 48.577 17.1423 52.4667 17.4503Z" fill="#CCCCCC"/>
<path d="M98.2265 17.4503L88.9561 125.327L107.497 126.713V18.8228C105.288 17.3696 102.116 17.1423 98.2265 17.4503Z" fill="#CCCCCC"/>
<path d="M104.721 131.172H45.7751C44.8299 131.171 43.9237 130.797 43.2553 130.132C42.587 129.468 42.211 128.567 42.21 127.628V20.4061C42.211 19.4665 42.587 18.5657 43.2553 17.9013C43.9237 17.2369 44.8299 16.8632 45.7751 16.8621H104.721C105.666 16.8632 106.572 17.2369 107.241 17.9013C107.909 18.5657 108.285 19.4665 108.286 20.4061V127.628C108.285 128.567 107.909 129.468 107.241 130.132C106.573 130.797 105.666 131.171 104.721 131.172ZM45.7751 18.0385C45.1436 18.0392 44.5383 18.2889 44.0918 18.7327C43.6453 19.1766 43.3941 19.7784 43.3934 20.4061V127.628C43.3941 128.255 43.6453 128.857 44.0918 129.301C44.5382 129.745 45.1436 129.994 45.7751 129.995H104.721C105.353 129.994 105.958 129.745 106.404 129.301C106.851 128.857 107.102 128.255 107.103 127.628V20.4061C107.102 19.7784 106.851 19.1766 106.404 18.7327C105.958 18.2889 105.353 18.0392 104.721 18.0385L45.7751 18.0385Z" fill="#CCCCCC"/>
<path d="M107.695 34.7046H42.8018V35.881H107.695V34.7046Z" fill="#CCCCCC"/>
<path d="M107.695 54.3117H42.8018V55.4881H107.695V54.3117Z" fill="#CCCCCC"/>
<path d="M63.8602 17.4503H62.6768V70.9778H63.8602V17.4503Z" fill="#CCCCCC"/>
<path d="M87.8192 17.4503H86.6357V70.9778H87.8192V17.4503Z" fill="#CCCCCC"/>
<path d="M115.091 134.407H37.3773C35.9649 134.407 34.6103 133.849 33.6116 132.856C32.6128 131.863 32.0518 130.517 32.0518 129.113C32.0518 127.709 32.6128 126.362 33.6116 125.369C34.6103 124.377 35.9649 123.819 37.3773 123.819H115.091C116.503 123.819 117.858 124.377 118.857 125.369C119.855 126.362 120.416 127.709 120.416 129.113C120.416 130.517 119.855 131.863 118.857 132.856C117.858 133.849 116.503 134.407 115.091 134.407Z" fill="#CCCCCC"/>
<path d="M107.695 68.2328H43.1963V72.1542H107.695V68.2328Z" fill="#CCCCCC"/>
<path d="M64.0434 80.7128L63.9616 80.6736C59.5647 78.5622 53.8069 78.5641 45.2919 80.6805L45.201 80.7031L45.1737 80.6138C44.2729 77.6778 43.2525 74.3525 45.1695 72.7164C45.1964 67.9156 49.4327 64.0172 54.6363 64.0172C59.8387 64.0172 64.0745 67.9135 64.1029 72.7132C66.9546 74.8805 65.5956 78.0832 64.0895 80.6349L64.0434 80.7128Z" fill="#2F2E41"/>
<path d="M91.0683 70.4327C90.9895 70.8218 90.8258 71.1889 90.5888 71.5082C90.3518 71.8276 90.0473 72.0914 89.6966 72.281C89.346 72.4707 88.9577 72.5817 88.5593 72.6061C88.1608 72.6305 87.7618 72.5677 87.3904 72.4223L71.8521 87.9442L70.4658 83.1246L85.8982 68.7104C86.1854 68.1063 86.6855 67.6279 87.3038 67.3659C87.9221 67.1039 88.6156 67.0765 89.2529 67.2888C89.8901 67.5011 90.4269 67.9384 90.7615 68.5179C91.0961 69.0973 91.2053 69.7786 91.0683 70.4327L91.0683 70.4327Z" fill="#FFB6B6"/>
<path d="M52.6654 85.3757C52.6654 85.3757 51.2556 88.5515 54.7341 90.5099C58.2126 92.4683 70.3701 89.7626 72.3427 89.3848C74.3154 89.007 81.6832 78.0465 81.6832 78.0465L80.6414 72.6712L70.87 81.1032L52.6654 85.3757Z" fill="url(#paint0_linear_29_35336)" fill-opacity="0.9"/>
<path d="M50.1 102.937L50.2972 106.663C50.2972 106.663 49.715 109.963 50.1938 110.675C50.669 111.383 63.636 111.473 63.636 111.473C63.636 111.473 64.4928 106.882 65.2308 102.863L50.1 102.937Z" fill="#FFB6B6"/>
<path d="M87.3814 152.195L90.0923 151.65L89.3163 140.766L85.3154 141.569L87.3814 152.195Z" fill="#FFB6B6"/>
<path d="M91.2646 138.03L93.7848 136.903L90.5155 126.489L86.7959 128.152L91.2646 138.03Z" fill="#FFB6B6"/>
<path d="M93.4599 132.162L88.7146 134.833L77.0118 116.139C68.7964 121.641 60.7627 124.276 52.6641 125.682C49.926 126.166 47.1343 125.921 46.6086 123.15C46.584 123.021 46.5644 122.891 46.5498 122.76C46.2265 119.734 50.0131 115.855 50.4944 112.153L60.8576 111.534L62.1356 113.163L74.1203 105.839C76.5304 104.366 79.7004 105.162 81.2006 107.618C81.2798 107.748 81.3533 107.881 81.4212 108.017L93.4599 132.162Z" fill="#2F2E41"/>
<path d="M90.5549 144.737L85.1251 145.239L75.2801 125.224C65.5175 126.893 56.3074 127.427 48.341 125.408C45.6438 124.734 43.995 121.966 44.6585 119.225C44.6895 119.097 44.7253 118.97 44.766 118.844C45.7194 115.953 48.2152 113.907 50.1815 110.726L64.5441 110.943L62.9399 116.445L76.8921 114.651C79.6979 114.29 82.2605 116.309 82.6156 119.16C82.6344 119.31 82.6466 119.462 82.6524 119.613L90.5549 144.737Z" fill="#2F2E41"/>
<path d="M55.708 77.8672C58.9289 77.8672 61.54 75.2717 61.54 72.0698C61.54 68.868 58.9289 66.2725 55.708 66.2725C52.4871 66.2725 49.876 68.868 49.876 72.0698C49.876 75.2717 52.4871 77.8672 55.708 77.8672Z" fill="#FFB6B6"/>
<path d="M52.2887 79.9601L57.6361 80.5855C57.8616 80.6118 58.0732 80.7075 58.2415 80.8591C58.4097 81.0107 58.5262 81.2106 58.5747 81.4311L59.4251 85.2994L64.7263 91.5052C64.7263 91.5052 66.6299 95.0533 65.916 99.0745C65.2022 103.096 64.8885 106.084 64.8885 106.084C64.8885 106.084 50.6681 111.384 50.1922 110.674C49.7163 109.964 49.5618 106.741 49.5618 106.741L47.6582 85.6892C47.6582 85.6892 49.7998 82.1411 50.9895 82.1411C51.7574 82.1154 51.6589 80.3975 52.2887 79.9601Z" fill="url(#paint1_linear_29_35336)" fill-opacity="0.9"/>
<path d="M65.0326 107.378C65.7825 107.378 66.3904 106.653 66.3904 105.758C66.3904 104.864 65.7825 104.139 65.0326 104.139C64.2827 104.139 63.6748 104.864 63.6748 105.758C63.6748 106.653 64.2827 107.378 65.0326 107.378Z" fill="#246BFD"/>
<path d="M86.0361 149.392L90.1691 147.333L90.948 149.139L96.1742 150.19C96.4324 150.241 96.6671 150.374 96.8441 150.568C97.0211 150.762 97.1312 151.007 97.1582 151.267C97.1852 151.527 97.1278 151.79 96.9943 152.015C96.8608 152.241 96.6583 152.418 96.4162 152.521L91.3666 154.673L89.7257 153.257L90.1564 155.189L88.2525 156L86.0361 149.392Z" fill="#2F2E41"/>
<path d="M90.082 137.163L94.1779 135.032L94.9887 136.825L100.233 137.784C100.492 137.831 100.729 137.959 100.909 138.15C101.09 138.341 101.204 138.584 101.236 138.844C101.267 139.103 101.214 139.367 101.085 139.595C100.955 139.823 100.756 140.003 100.516 140.111L95.5051 142.35L93.8394 140.963L94.3042 142.887L92.415 143.731L90.082 137.163Z" fill="#2F2E41"/>
<path d="M52.3754 70.2514C50.8346 70.2539 49.3308 69.7822 48.0704 68.9013L48.0283 68.872V68.8209C48.03 67.3394 48.6228 65.9191 49.6767 64.8715C50.7305 63.8239 52.1594 63.2346 53.6497 63.2329H56.0167C57.507 63.2346 58.9359 63.8239 59.9897 64.8715C61.0436 65.9191 61.6364 67.3394 61.6381 68.8209C61.6365 69.16 61.5018 69.4851 61.2627 69.7269C61.0236 69.9688 60.699 70.1083 60.3579 70.1157L52.5084 70.2502C52.4641 70.251 52.4196 70.2514 52.3754 70.2514Z" fill="#2F2E41"/>
<path d="M62.0333 67.7478C62.788 67.3146 62.9141 66.1272 62.315 65.0956C61.7158 64.0641 60.6183 63.579 59.8636 64.0121C59.1089 64.4453 58.9828 65.6326 59.5819 66.6642C60.181 67.6958 61.2786 68.1809 62.0333 67.7478Z" fill="#2F2E41"/>
<path d="M50.2296 66.5969C51.0769 65.7546 51.2642 64.5752 50.648 63.9627C50.0318 63.3501 48.8454 63.5363 47.9981 64.3786C47.1507 65.2209 46.9634 66.4003 47.5796 67.0128C48.1959 67.6254 49.3823 67.4392 50.2296 66.5969Z" fill="#2F2E41"/>
<path d="M101.844 119.603H96.0232C95.8919 119.603 95.7621 119.631 95.6429 119.686C95.5237 119.741 95.418 119.821 95.3332 119.921C95.1185 119.881 94.8974 119.893 94.6883 119.955C94.4791 120.018 94.2878 120.128 94.1299 120.278C93.9721 120.428 93.8523 120.613 93.7803 120.818C93.7083 121.023 93.6863 121.242 93.7159 121.457C93.7456 121.672 93.8261 121.877 93.9509 122.055C94.0756 122.233 94.2411 122.379 94.4337 122.481C94.6263 122.583 94.8405 122.638 95.0588 122.642C95.2771 122.646 95.4931 122.599 95.6893 122.503L96.1721 124.063C96.2293 124.248 96.3446 124.41 96.5011 124.524C96.6576 124.639 96.847 124.701 97.0415 124.701H100.826C101.021 124.701 101.21 124.639 101.367 124.524C101.523 124.409 101.638 124.248 101.696 124.063L102.714 120.774C102.756 120.638 102.765 120.495 102.741 120.356C102.717 120.216 102.661 120.084 102.576 119.97C102.491 119.857 102.381 119.764 102.254 119.7C102.127 119.637 101.987 119.603 101.844 119.603ZM95.0876 122.25C94.826 122.25 94.5752 122.147 94.3902 121.963C94.2053 121.779 94.1013 121.53 94.1013 121.27C94.1013 121.01 94.2053 120.761 94.3902 120.577C94.5752 120.393 94.826 120.29 95.0876 120.29C95.1056 120.29 95.1223 120.294 95.1401 120.295C95.1009 120.453 95.1057 120.618 95.1539 120.774L95.5705 122.119C95.4237 122.204 95.2573 122.249 95.0876 122.25Z" fill="#3F3D56"/>
<path d="M75.8498 115.347C75.4523 115.384 75.0515 115.333 74.6758 115.199C74.3 115.065 73.9584 114.851 73.675 114.571C73.3916 114.292 73.1733 113.954 73.0355 113.581C72.8977 113.209 72.8436 112.811 72.8773 112.416L53.4609 102.073L57.7077 99.3696L76.0262 109.93C76.6907 110.03 77.2952 110.369 77.7251 110.882C78.155 111.396 78.3804 112.049 78.3587 112.716C78.3369 113.384 78.0695 114.021 77.6071 114.506C77.1447 114.991 76.5194 115.29 75.8498 115.347Z" fill="#FFB6B6"/>
<path d="M50.4317 83.0649C50.4317 83.0649 46.9669 82.6336 46.0776 86.508C45.1883 90.3823 51.284 101.183 52.2141 102.953C53.1441 104.723 65.8204 108.595 65.8204 108.595L70.7016 106.06L59.7723 99.1747L50.4317 83.0649Z" fill="url(#paint2_linear_29_35336)" fill-opacity="0.9"/>
<path d="M74.8533 67.0563H76.0367C76.6122 67.0563 77.164 67.2836 77.5709 67.688C77.9778 68.0925 78.2064 68.6411 78.2064 69.2131H72.6836C72.6836 68.6411 72.9122 68.0925 73.3191 67.688C73.726 67.2836 74.2778 67.0563 74.8533 67.0563Z" fill="#CCCCCC"/>
<path d="M37.326 26.8158C43.8013 26.8158 49.0505 21.5977 49.0505 15.1609C49.0505 8.72415 43.8013 3.5061 37.326 3.5061C30.8508 3.5061 25.6016 8.72415 25.6016 15.1609C25.6016 21.5977 30.8508 26.8158 37.326 26.8158Z" fill="#FF6584"/>
<path d="M73.2243 14.5536C70.1214 11.3179 66.5178 8.36613 62.2517 6.80631C61.0634 6.36997 59.8313 6.06217 58.5766 5.88824C58.5665 5.88687 58.557 5.8889 58.5469 5.88809C58.5265 5.88286 58.5058 5.87882 58.4849 5.87599C56.7302 5.65377 54.949 5.76066 53.2339 6.19112C52.3952 6.40035 51.5769 6.6837 50.789 7.03779C49.9982 7.42127 49.232 7.85291 48.4948 8.33024C46.9343 9.2588 45.2162 9.89595 43.4251 10.2103C42.5262 10.3712 41.6156 10.46 40.7023 10.4759C39.9098 10.4917 39.1625 10.5191 38.4117 10.8037C37.6096 11.1035 36.8892 11.5855 36.3078 12.2112C35.7265 12.837 35.3003 13.5891 35.0633 14.4077C35.045 14.4806 35.0505 14.5574 35.079 14.6269C35.1075 14.6965 35.1575 14.7553 35.2218 14.7948C35.4249 14.9394 35.6229 15.1035 35.8363 15.2323C36.0261 15.3187 36.2288 15.3736 36.4365 15.395C36.7758 15.4662 37.1155 15.5353 37.4556 15.6023C38.7086 15.8491 39.9669 16.0675 41.2303 16.2577C43.7869 16.6424 46.3572 16.9134 48.9414 17.0707C54.1182 17.3824 59.3128 17.2272 64.4614 16.607C67.355 16.2586 70.2289 15.7645 73.0721 15.1265C73.1297 15.1098 73.1819 15.0785 73.2238 15.0358C73.2656 14.9931 73.2957 14.9404 73.311 14.8828C73.3263 14.8251 73.3263 14.7645 73.3112 14.7068C73.296 14.6492 73.266 14.5964 73.2243 14.5536Z" fill="#E6E6E6"/>
<path d="M37.8826 22.3461C36.6943 21.9098 35.4621 21.602 34.2075 21.428C34.1974 21.4267 34.1878 21.4287 34.1778 21.4279C34.1574 21.4227 34.1367 21.4186 34.1158 21.4158C32.361 21.1936 30.5799 21.3005 28.8648 21.7309C28.026 21.9401 27.2078 22.2235 26.4198 22.5776C25.6291 22.9611 24.8629 23.3927 24.1257 23.87C22.5651 24.7986 20.847 25.4357 19.056 25.7501C18.157 25.911 17.2465 25.9998 16.3332 26.0157C15.5407 26.0315 14.7933 26.0589 14.0425 26.3435C13.2405 26.6433 12.5201 27.1253 11.9387 27.751C11.3573 28.3768 10.9312 29.1289 10.6942 29.9475C10.6759 30.0204 10.6814 30.0971 10.7099 30.1667C10.7384 30.2363 10.7884 30.2951 10.8526 30.3346C11.0557 30.4792 11.2537 30.6432 11.4671 30.7721C11.657 30.8584 11.8597 30.9134 12.0674 30.9348C12.4066 31.006 12.7463 31.075 13.0865 31.142C14.3395 31.3888 15.5977 31.6073 16.8612 31.7974C19.4177 32.1822 21.9881 32.4532 24.5723 32.6104C29.7491 32.9222 34.9437 32.767 40.0923 32.1468C42.9859 31.7984 45.8598 31.3042 48.703 30.6663C48.7606 30.6496 48.8128 30.6183 48.8546 30.5756C48.8965 30.5329 48.9265 30.4802 48.9418 30.4225C48.9571 30.3649 48.9572 30.3043 48.942 30.2466C48.9268 30.1889 48.8969 30.1361 48.8552 30.0933C45.7523 26.8577 42.1487 23.9059 37.8826 22.3461Z" fill="#E6E6E6"/>
<path d="M122.433 109.231L113.417 97.4568L106.303 101.455L121.378 119.251L122.433 109.231Z" fill="#3F3D56"/>
<path d="M143.202 90.0908C143.402 95.0251 144.171 99.9203 145.494 104.68C145.21 105.345 144.917 106.005 144.614 106.661C143.47 109.143 142.189 111.561 140.776 113.904C136.815 120.481 131.87 126.421 126.111 131.521C125.488 132.072 124.856 132.613 124.216 133.146C120.565 128.142 118.594 122.621 117.815 116.939C117.716 116.217 117.636 115.488 117.574 114.762V114.758C117.425 112.995 117.377 111.225 117.43 109.457C117.432 109.316 117.436 109.172 117.442 109.029C117.511 107.139 117.683 105.245 117.941 103.369V103.367C117.971 103.151 118 102.935 118.034 102.72C118.129 102.073 118.235 101.426 118.352 100.783C119.029 97.0734 119.974 93.4177 121.18 89.8437V89.8417C121.214 89.7378 121.247 89.6359 121.285 89.5339C121.415 89.1457 121.547 88.7614 121.683 88.3771C121.691 88.347 121.702 88.3175 121.715 88.2889C121.89 87.7869 122.07 87.2889 122.253 86.7948C122.302 86.6576 122.354 86.5203 122.407 86.3831C122.614 85.8321 122.825 85.2851 123.04 84.7459C123.107 84.5733 123.176 84.4008 123.245 84.2302C123.298 84.0988 123.35 83.9675 123.405 83.8381V83.8361C123.719 83.0655 124.036 82.31 124.358 81.5695C125.259 79.4872 126.186 77.5285 127.089 75.7227L127.091 75.7207C130.841 68.2445 134.249 63.3898 134.249 63.3898L147.048 67.5073C145.522 70.1994 144.34 74.1698 143.693 78.8539C143.195 82.577 143.03 86.3368 143.202 90.0888L143.202 90.0908Z" fill="#3F3D56"/>
<path d="M121.929 88.8928C121.854 88.7183 121.77 88.5477 121.683 88.3771C121.233 87.5112 120.654 86.7179 119.965 86.0243C119.862 85.9204 119.756 85.8164 119.645 85.7184C118.457 84.6306 117.012 83.858 115.444 83.4722C113.877 83.0863 112.236 83.0995 110.675 83.5106L110.667 83.5146L110.608 83.5303L110.621 83.5969C110.681 83.9075 110.766 84.2126 110.878 84.5086C110.907 84.589 110.941 84.6655 110.974 84.742C110.988 84.7773 111.006 84.8086 111.022 84.8439C111.022 84.8439 111.02 84.8459 111.024 84.8459C111.024 84.8478 111.026 84.8498 111.026 84.8518C111.063 84.9243 111.099 84.9988 111.138 85.0694C111.057 84.9929 110.98 84.9145 110.905 84.8341C110.832 84.7596 110.765 84.6812 110.698 84.6028C110.468 84.3363 110.261 84.0517 110.077 83.7518L110.045 83.6989L109.99 83.7205C109.246 83.9768 108.536 84.3225 107.876 84.7498L107.805 84.7969C107.301 85.1258 106.733 85.3457 106.138 85.4423C105.543 85.5389 104.934 85.5101 104.351 85.3576C103.432 85.122 102.473 85.079 101.537 85.2312C100.6 85.3835 99.705 85.7276 98.9091 86.2419C98.3819 86.5836 97.9052 86.9967 97.4929 87.4693C97.4574 87.5105 97.4219 87.5536 97.3864 87.5948C97.3114 87.685 97.2404 87.7772 97.1714 87.8713C96.4299 88.8564 95.9748 90.025 95.8558 91.2496L95.8518 91.2947L95.8893 91.3202C96.5567 91.7749 97.3115 92.0873 98.1063 92.2378C97.6071 92.3071 97.1015 92.3196 96.5994 92.275H96.5974C96.3696 92.2563 96.1431 92.2249 95.9189 92.1809L95.8775 92.1731H95.8755L95.8242 92.1633L95.8321 92.2574C95.891 93.4554 96.2703 94.6162 96.9307 95.62L96.9505 95.6475C96.9578 95.6575 96.9643 95.668 96.9702 95.6788C97.25 96.1043 97.4828 96.5585 97.6645 97.0337C98.1257 98.2144 98.2272 99.5038 97.9564 100.741C97.65 102.065 97.7519 103.45 98.2487 104.715C98.7454 105.981 99.6141 107.068 100.741 107.835C101.732 108.513 102.886 108.915 104.085 109.002C104.248 109.016 104.414 109.023 104.58 109.023C105.528 109.026 106.467 108.832 107.335 108.453L107.367 108.441L107.375 108.406C107.542 107.87 107.776 107.357 108.073 106.88C107.976 107.256 107.927 107.643 107.927 108.031V108.161L108.039 108.096C108.136 108.039 108.235 107.978 108.323 107.922C108.856 107.576 109.339 107.159 109.757 106.682C109.921 106.494 110.087 106.312 110.26 106.129L110.262 106.127C110.6 105.771 110.957 105.422 111.327 105.088C112.116 104.384 112.961 103.743 113.852 103.173C114.743 102.604 115.675 102.101 116.639 101.667H116.641C116.75 101.616 116.86 101.567 116.969 101.52C117.449 101.312 117.911 101.065 118.351 100.783C118.367 100.773 118.381 100.765 118.395 100.755C120.301 99.5141 121.703 97.6406 122.351 95.4684C122.998 93.2961 122.849 90.9659 121.929 88.8928L121.929 88.8928Z" fill="url(#paint3_linear_29_35336)" fill-opacity="0.9"/>
<path opacity="0.15" d="M98.2811 103.525C98.2272 103.764 98.1865 104.005 98.1589 104.248C97.7917 103.094 97.7385 101.864 98.0047 100.684C98.0457 100.503 98.0765 100.32 98.1006 100.137C98.4651 101.23 98.5274 102.4 98.2811 103.525Z" fill="black"/>
<path opacity="0.15" d="M98.4309 95.0201C97.8467 95.1008 97.2542 95.1036 96.6692 95.0285C96.516 94.7413 96.3837 94.4435 96.2734 94.1374C96.9248 94.5744 97.6589 94.8747 98.4309 95.0201Z" fill="black"/>
<path opacity="0.15" d="M96.6221 92.212C96.4065 92.7603 96.2632 93.334 96.1958 93.9188C96.0159 93.3618 95.9096 92.7839 95.8798 92.1996L95.875 92.1054L95.9681 92.1234C96.1845 92.1638 96.4028 92.1933 96.6221 92.212Z" fill="black"/>
<path opacity="0.15" d="M98.9603 86.1837C99.7552 85.6687 100.649 85.324 101.586 85.1715C102.522 85.0191 103.48 85.0623 104.399 85.2983C104.982 85.4516 105.592 85.4809 106.187 85.3844C106.782 85.288 107.351 85.0678 107.855 84.7384L107.926 84.6918C108.585 84.2634 109.295 83.9169 110.039 83.6599L110.096 83.6404L110.127 83.6915C110.421 84.175 110.778 84.6183 111.187 85.0101C110.939 84.5492 110.764 84.0523 110.671 83.5375L110.658 83.4696L110.725 83.4519C112.189 83.0666 113.725 83.031 115.206 83.3479C116.687 83.6647 118.071 84.3251 119.247 85.2752C120.422 86.2253 121.355 87.4382 121.969 88.8148C122.583 90.1915 122.861 91.6929 122.78 93.1967C122.469 91.9707 121.917 90.8183 121.155 89.806C120.393 88.7938 119.436 87.942 118.341 87.2999C117.245 86.6578 116.032 86.2382 114.773 86.0655C113.513 85.8927 112.231 85.9702 111.001 86.2935L110.934 86.3112L110.947 86.3791C111.041 86.8939 111.215 87.3908 111.464 87.8517C111.054 87.4599 110.698 87.0166 110.403 86.5331L110.372 86.482L110.316 86.5016C109.571 86.7585 108.862 87.105 108.202 87.5334L108.131 87.58C107.627 87.9095 107.059 88.1296 106.463 88.2261C105.868 88.3225 105.259 88.2932 104.676 88.1399C103.149 87.746 101.531 87.8909 100.1 88.5497C98.6684 89.2085 97.5111 90.3406 96.8253 91.7528C96.52 91.6069 96.224 91.4426 95.939 91.2606L95.9004 91.2362L95.905 91.191C96.0031 90.1819 96.3288 89.2076 96.8577 88.3407C97.3866 87.4738 98.1053 86.7365 98.9603 86.1837Z" fill="black"/>
<path d="M172.287 36.0849L172.1 35.9614L171.964 36.1379C170.91 37.4561 170.072 38.931 169.48 40.5083C169.562 38.6912 169.882 36.8925 170.431 35.1575L170.49 34.9752L170.321 34.8791C168.114 33.6368 165.762 32.6676 163.319 31.9929L163.052 31.9223C161.179 31.4115 159.436 30.514 157.935 29.2883C156.435 28.0626 155.211 26.5363 154.344 24.8089C152.329 20.8444 149.145 17.5852 145.218 15.466C141.291 13.3469 136.807 12.4687 132.365 12.9485H132.363C132.316 12.9524 132.267 12.9583 132.219 12.9642C132.138 12.9721 132.06 12.9819 131.981 12.9917C131.819 13.0132 131.661 13.0348 131.503 13.0583C131.369 13.0779 131.233 13.0995 131.099 13.123C131.028 13.1328 130.959 13.1446 130.89 13.1583C130.821 13.1701 130.75 13.1818 130.681 13.1956H130.679C129.354 13.4446 128.056 13.8155 126.801 14.3034H126.799V14.3053L126.481 14.4289C126.154 14.5622 125.829 14.7034 125.507 14.8524C125.434 14.8857 125.363 14.921 125.29 14.9543C125.27 14.9641 125.249 14.9739 125.229 14.9857C125.022 15.0837 124.817 15.1857 124.614 15.2935C124.584 15.3073 124.554 15.3229 124.525 15.3386L124.335 15.4386C123.919 15.6621 123.51 15.8994 123.109 16.1504C123.075 16.17 123.044 16.1896 123.01 16.2111C122.975 16.2347 122.937 16.2582 122.902 16.2817C122.88 16.2935 122.858 16.3092 122.836 16.3229C122.775 16.3602 122.716 16.3994 122.657 16.4405C122.539 16.517 122.42 16.5954 122.304 16.6758C122.184 16.7562 122.065 16.8405 121.947 16.9248L121.829 17.0092L121.85 17.1542C121.87 17.2738 121.888 17.3934 121.909 17.5111C121.929 17.6287 121.949 17.7444 121.971 17.8601C122.004 18.0542 122.042 18.2464 122.079 18.4326C122.105 18.5562 122.128 18.6777 122.156 18.7973C122.182 18.9208 122.209 19.0444 122.239 19.1679C122.296 19.4228 122.357 19.6698 122.422 19.913C122.454 20.0345 122.487 20.1561 122.523 20.2757C122.543 20.3482 122.562 20.4208 122.584 20.4914C122.6 20.5404 122.616 20.5894 122.631 20.6384C122.635 20.6541 122.639 20.6718 122.645 20.6894C122.649 20.706 122.655 20.7224 122.661 20.7384C122.683 20.811 122.704 20.8816 122.726 20.9502C122.738 20.9874 122.75 21.0247 122.763 21.06C122.791 21.1443 122.821 21.2306 122.85 21.3129C122.882 21.407 122.915 21.5011 122.949 21.5933C122.957 21.6168 122.965 21.6384 122.973 21.6619C122.978 21.6796 122.984 21.6972 122.992 21.7149C123 21.7345 123.008 21.756 123.016 21.7756C123.049 21.8639 123.083 21.9541 123.119 22.0423C123.13 22.0737 123.142 22.107 123.156 22.1384C123.476 22.9371 123.869 23.705 124.33 24.4324C123.819 23.9971 123.327 23.5357 122.854 23.0481C122.124 22.2943 121.452 21.4875 120.842 20.6345C120.793 20.5678 120.744 20.4992 120.698 20.4306C120.606 20.2992 120.515 20.1679 120.426 20.0345C120.331 19.8973 120.241 19.7541 120.152 19.613C120.093 19.5189 120.034 19.4228 119.976 19.3287C119.919 19.2385 119.866 19.1502 119.815 19.0601L119.661 18.7973H119.659V18.7993L119.442 19.011C119.355 19.0953 119.268 19.1797 119.184 19.264C116.532 21.9155 114.612 25.2004 113.607 28.8028L113.578 28.9107L113.548 29.0224C113.491 29.2224 113.434 29.4165 113.373 29.6146V29.6165C113.314 29.8126 113.25 30.0087 113.183 30.2008C113.122 30.3832 113.059 30.5635 112.992 30.7439C112.97 30.8047 112.947 30.8655 112.921 30.9263C112.88 31.0439 112.834 31.1596 112.789 31.2772C112.767 31.3302 112.746 31.3851 112.724 31.438C112.671 31.5674 112.617 31.6968 112.564 31.8243C112.556 31.8439 112.546 31.8655 112.536 31.8851C112.521 31.9243 112.503 31.9635 112.487 32.0007C112.446 32.0949 112.402 32.1909 112.361 32.285C112.331 32.3458 112.304 32.4086 112.276 32.4694C112.264 32.4968 112.25 32.5243 112.239 32.5517C112.166 32.7086 112.091 32.8635 112.012 33.0164C111.923 33.1968 111.832 33.3772 111.736 33.5536C111.651 33.7183 111.562 33.8791 111.469 34.0399C111.31 34.3242 111.142 34.6065 110.968 34.881C110.901 34.9869 110.834 35.0928 110.765 35.1987C110.749 35.2242 110.734 35.2497 110.718 35.2732C110.661 35.3653 110.602 35.4536 110.54 35.5438C110.499 35.6045 110.458 35.6653 110.416 35.7241C110.347 35.83 110.274 35.932 110.199 36.032C110.179 36.0633 110.158 36.0928 110.136 36.1222C110.026 36.2751 109.915 36.4241 109.803 36.5731C109.799 36.5751 109.799 36.5771 109.797 36.579C109.793 36.579 109.793 36.581 109.791 36.5829C109.742 36.6476 109.692 36.7123 109.641 36.7751C109.574 36.8672 109.501 36.9574 109.428 37.0457C109.31 37.1947 109.185 37.3457 109.059 37.4927C109.055 37.4966 109.053 37.5005 109.049 37.5025C108.396 38.2658 107.688 38.9814 106.931 39.6436C106.917 39.6554 106.907 39.6671 106.893 39.6769C106.787 39.7691 106.68 39.8612 106.57 39.9514C106.525 39.9887 106.479 40.0259 106.434 40.0632C106.359 40.1259 106.282 40.1887 106.207 40.2455C106.198 40.2546 106.188 40.2625 106.177 40.2691C106.11 40.324 106.045 40.375 105.978 40.4259C105.897 40.4906 105.816 40.5514 105.734 40.6122C105.343 40.9063 104.942 41.1841 104.53 41.4455C104.469 41.4867 104.404 41.5279 104.341 41.5671C104.304 41.5906 104.266 41.6141 104.231 41.6337C104.081 41.7259 103.931 41.8161 103.781 41.9023C103.631 41.9906 103.477 42.0749 103.325 42.1572C103 42.3337 102.678 42.518 102.365 42.7102C102.207 42.8082 102.049 42.9062 101.893 43.0062C101.274 43.4062 100.678 43.8343 100.104 44.2905C99.531 44.747 98.9813 45.2319 98.4573 45.7434C98.3922 45.8061 98.3271 45.8708 98.262 45.9375C98.1318 46.0649 98.0056 46.1943 97.8853 46.3238C97.692 46.5218 97.5066 46.7257 97.3231 46.9316C96.3559 48.0226 95.4996 49.2061 94.7669 50.4648C94.3989 51.0933 94.0645 51.7405 93.7649 52.4039C93.5381 52.9 93.3309 53.4078 93.1436 53.9215C93.0193 54.2646 92.9029 54.611 92.7944 54.9607C92.7412 55.1352 92.6899 55.3116 92.6406 55.4881C92.4729 56.0861 92.3329 56.69 92.2185 57.2959C92.1258 57.7822 92.0508 58.2691 91.9936 58.7566C91.964 59.0017 91.9404 59.2468 91.9187 59.4899C91.8679 60.0875 91.8419 60.6857 91.8409 61.2844C91.8374 63.0806 92.0569 64.8704 92.4946 66.6132C92.5913 66.9975 92.6984 67.3798 92.8161 67.7602C92.8753 67.9504 92.9384 68.1386 93.0015 68.3269C93.1613 68.7974 93.3382 69.2634 93.5321 69.7248C93.6485 70.0013 93.7708 70.2758 93.899 70.5483C94.7138 72.281 95.7536 73.8999 96.9918 75.3638C97.1949 75.605 97.4046 75.8423 97.621 76.0756C97.6229 76.0756 97.621 76.0775 97.621 76.0775C98.1577 76.6595 98.726 77.2119 99.3232 77.7324H99.3251C99.5638 77.9422 99.8064 78.1454 100.053 78.3422C100.055 78.3402 100.055 78.3422 100.055 78.3422C100.303 78.5422 100.554 78.7343 100.81 78.9206C100.939 79.0127 101.069 79.1049 101.201 79.197C101.459 79.3794 101.723 79.5552 101.992 79.7245H101.994C102.262 79.897 102.534 80.0617 102.81 80.2186C103.365 80.5342 103.933 80.8303 104.517 81.0989L104.615 81.144L104.716 81.0989C105.652 80.6802 106.617 80.3283 107.603 80.046C107.82 79.9833 108.039 79.9264 108.256 79.8715C108.805 79.7362 109.357 79.6225 109.913 79.5304C109.371 79.8006 108.848 80.1065 108.347 80.446C107.958 80.7068 107.576 80.9911 107.191 81.3048C107.063 81.4087 106.935 81.5166 106.807 81.6264L106.487 81.9009L106.887 82.0322C107.033 82.0793 107.179 82.1264 107.325 82.1695C107.525 82.2322 107.722 82.2891 107.915 82.342C108.337 82.4597 108.762 82.5636 109.189 82.6538C109.294 82.6754 109.396 82.6969 109.501 82.7185C109.704 82.7577 109.909 82.7969 110.114 82.8322C110.123 82.8343 110.131 82.8356 110.14 82.8361C110.353 82.8714 110.568 82.9047 110.781 82.9342C111.177 82.991 111.574 83.0361 111.97 83.0694C112.014 83.0753 112.057 83.0773 112.103 83.0793C112.199 83.0871 112.294 83.0949 112.39 83.1008C112.604 83.1145 112.819 83.1243 113.034 83.1322C113.049 83.1322 113.063 83.1341 113.079 83.1341C113.187 83.1381 113.296 83.142 113.404 83.144C113.404 83.144 113.404 83.1459 113.406 83.144C113.515 83.1459 113.623 83.1479 113.732 83.1479H114.331C114.444 83.1479 114.556 83.1498 114.671 83.1498C114.828 83.1498 114.988 83.1518 115.146 83.1538C115.187 83.1538 115.231 83.1557 115.274 83.1557C115.527 83.1596 115.779 83.1655 116.032 83.1714C116.047 83.1714 116.063 83.1734 116.079 83.1734C116.331 83.1812 116.584 83.189 116.836 83.2008C116.892 83.2028 116.947 83.2047 117.004 83.2086C117.247 83.2185 117.489 83.2302 117.732 83.2439C117.801 83.2479 117.872 83.2537 117.943 83.2577C118.126 83.2675 118.312 83.2792 118.495 83.293C118.604 83.2989 118.71 83.3067 118.819 83.3165C119.257 83.3498 119.692 83.3871 120.13 83.4302C120.276 83.442 120.422 83.4577 120.568 83.4734C120.959 83.5145 121.351 83.5596 121.744 83.6086C121.919 83.6283 122.095 83.6518 122.27 83.6753C122.29 83.6773 122.31 83.6792 122.33 83.6831C122.547 83.7126 122.762 83.742 122.978 83.7733C123.12 83.7929 123.263 83.8145 123.405 83.8361C123.55 83.8577 123.696 83.8792 123.842 83.9047C123.921 83.9165 124 83.9302 124.081 83.9439C124.27 83.9733 124.462 84.0047 124.653 84.04C124.67 84.0417 124.687 84.0443 124.704 84.0478C125.111 84.1184 125.519 84.1929 125.925 84.2733C126.164 84.3184 126.401 84.3655 126.637 84.4145C126.823 84.4518 127.008 84.491 127.194 84.5302C127.225 84.5361 127.257 84.5439 127.288 84.5517C127.295 84.5538 127.303 84.5551 127.31 84.5557C127.59 84.6164 127.872 84.6792 128.152 84.7459C129.125 84.9694 130.096 85.2177 131.065 85.4909C131.288 85.5517 131.511 85.6164 131.734 85.6811C131.829 85.7086 131.921 85.736 132.014 85.7635C132.207 85.8203 132.399 85.8772 132.592 85.938C132.762 85.9889 132.933 86.0419 133.103 86.0968C133.209 86.1301 133.316 86.1634 133.422 86.1987C133.588 86.2497 133.754 86.3027 133.918 86.3595C134.058 86.4027 134.196 86.4478 134.334 86.4968C134.531 86.5615 134.73 86.6282 134.927 86.6987C134.985 86.7183 135.044 86.7379 135.101 86.7595C135.342 86.8419 135.582 86.9262 135.823 87.0144C136.058 87.0987 136.292 87.185 136.525 87.2712C136.687 87.332 136.849 87.3909 137.008 87.4536C137.188 87.5222 137.367 87.5909 137.545 87.6614C137.801 87.7614 138.06 87.8634 138.316 87.9673C138.553 88.0614 138.787 88.1575 139.024 88.2575C139.068 88.2751 139.113 88.2928 139.156 88.3124C139.361 88.3967 139.567 88.4849 139.77 88.5732C139.902 88.6281 140.032 88.6849 140.162 88.7418C140.73 88.9888 141.298 89.2444 141.864 89.5084H141.866C142.221 89.6751 142.582 89.8339 142.945 89.9849C143.03 90.0202 143.115 90.0555 143.202 90.0888C143.346 90.1496 143.492 90.2065 143.638 90.2653C143.732 90.3025 143.827 90.3398 143.924 90.3751C144.064 90.43 144.206 90.4829 144.348 90.5339C144.498 90.5888 144.646 90.6437 144.797 90.6947C144.851 90.7143 144.904 90.7319 144.959 90.7515C145.135 90.8103 145.31 90.8692 145.488 90.926C145.506 90.9319 145.523 90.9378 145.543 90.9437C145.728 91.0025 145.914 91.0613 146.101 91.1162C146.116 91.1217 146.131 91.1263 146.147 91.1299C146.348 91.1907 146.553 91.2496 146.756 91.3064C147.056 91.3888 147.358 91.4672 147.659 91.5397C147.715 91.5535 147.77 91.5672 147.825 91.5789C147.987 91.6182 148.147 91.6554 148.308 91.6907C148.48 91.7299 148.654 91.7652 148.825 91.8005C148.999 91.8358 149.172 91.8711 149.344 91.9025C149.437 91.9201 149.529 91.9378 149.62 91.9534L149.863 91.9946C150.03 92.024 150.198 92.0495 150.368 92.077C150.372 92.0768 150.377 92.0774 150.381 92.0789C150.573 92.1083 150.762 92.1358 150.953 92.1593C151.137 92.1848 151.32 92.2064 151.504 92.2279C151.541 92.2319 151.581 92.2358 151.62 92.2397C151.772 92.2574 151.924 92.275 152.076 92.2887C152.119 92.2926 152.163 92.2966 152.206 92.3005C152.356 92.3142 152.506 92.3279 152.656 92.3377C152.686 92.3417 152.716 92.3436 152.746 92.3436C152.88 92.3554 153.015 92.3652 153.149 92.3711C153.243 92.3789 153.336 92.3828 153.431 92.3887C153.48 92.3907 153.527 92.3926 153.577 92.3946C153.707 92.4024 153.837 92.4064 153.969 92.4103C154.129 92.4162 154.289 92.4201 154.447 92.424C154.638 92.4279 154.831 92.4299 155.023 92.4299H155.026C155.214 92.4299 155.403 92.4279 155.591 92.424H155.662L155.869 92.4181C155.975 92.4162 156.082 92.4122 156.186 92.4083C156.387 92.4005 156.587 92.3907 156.786 92.3789C156.865 92.375 156.946 92.3691 157.025 92.3652C157.06 92.3632 157.098 92.3593 157.133 92.3573C157.257 92.3495 157.38 92.3417 157.504 92.3319C157.632 92.3221 157.762 92.3103 157.89 92.2966C158.056 92.2809 158.222 92.2632 158.388 92.2456C158.518 92.2319 158.648 92.2162 158.776 92.2005C158.793 92.199 158.81 92.1964 158.827 92.1926C158.952 92.1789 159.076 92.1632 159.198 92.1456C159.344 92.126 159.488 92.1044 159.632 92.0829C159.648 92.0809 159.662 92.0789 159.677 92.077C159.926 92.0378 160.177 91.9986 160.427 91.9535C160.689 91.9064 160.952 91.8554 161.212 91.8025C161.309 91.7829 161.403 91.7613 161.5 91.7417C161.553 91.7299 161.609 91.7201 161.66 91.7084C161.741 91.6907 161.82 91.6731 161.898 91.6535C161.912 91.6515 161.928 91.6476 161.942 91.6456C162.052 91.6221 162.161 91.5946 162.271 91.5672C162.492 91.5142 162.709 91.4593 162.926 91.4005C163.023 91.377 163.119 91.3515 163.212 91.326C163.24 91.3182 163.267 91.3103 163.293 91.3025C163.693 91.1907 164.09 91.0724 164.484 90.9476C164.658 90.8927 164.829 90.8358 165.001 90.7751C165.37 90.6496 165.735 90.5176 166.098 90.379C166.194 90.3437 166.291 90.3045 166.388 90.2672C166.53 90.2104 166.672 90.1535 166.812 90.0967C166.938 90.0437 167.064 89.9908 167.192 89.9359C167.256 89.9104 167.319 89.8829 167.382 89.8555C167.571 89.7731 167.761 89.6888 167.948 89.6045C168.074 89.5457 168.198 89.4888 168.323 89.43C168.52 89.3359 168.715 89.2398 168.91 89.1437C168.96 89.1183 169.007 89.0928 169.054 89.0692C169.179 89.0065 169.303 88.9418 169.429 88.8791C169.628 88.7732 169.828 88.6673 170.025 88.5575C170.092 88.5222 170.157 88.485 170.224 88.4477C170.441 88.3261 170.656 88.2026 170.869 88.0771C171.34 87.7967 171.805 87.5039 172.264 87.1987C172.378 87.1242 172.492 87.0458 172.605 86.9693C172.818 86.8242 173.027 86.6752 173.236 86.5262C173.258 86.5105 173.277 86.4948 173.299 86.4811C173.404 86.4046 173.508 86.3282 173.613 86.2497C173.83 86.087 174.045 85.9223 174.26 85.7537C174.264 85.7517 174.27 85.7458 174.275 85.7419C174.372 85.6655 174.469 85.589 174.563 85.5125C174.857 85.2753 175.147 85.0341 175.431 84.7851C175.571 84.6655 175.709 84.542 175.845 84.4184C175.948 84.3263 176.051 84.2341 176.151 84.14C176.354 83.9498 176.554 83.7616 176.751 83.5695C176.849 83.4753 176.946 83.3773 177.045 83.2793C177.141 83.1812 177.24 83.0832 177.337 82.9832C177.37 82.9499 177.404 82.9146 177.437 82.8793C177.536 82.7754 177.634 82.6695 177.733 82.5656C177.818 82.4754 177.901 82.3813 177.986 82.2871C178.128 82.1303 178.272 81.9734 178.412 81.8146C178.419 81.8057 178.427 81.7972 178.435 81.7891C178.443 81.7793 178.451 81.7715 178.457 81.7636H178.455C181.322 78.468 183.452 74.6046 184.705 70.4293C185.957 66.2539 186.303 61.8618 185.72 57.5435C185.137 53.2251 183.638 49.0792 181.322 45.3799C179.007 41.6806 175.927 38.5124 172.287 36.0849L172.287 36.0849Z" fill="url(#paint4_linear_29_35336)" fill-opacity="0.9"/>
<g opacity="0.15">
<path opacity="0.15" d="M132.364 12.947C132.757 14.3509 133.349 15.6923 134.121 16.9311C132.828 15.8272 131.673 14.5732 130.681 13.1961C131.238 13.0913 131.799 13.0082 132.364 12.947Z" fill="black"/>
<path opacity="0.15" d="M113.118 34.6593C111.658 35.4513 110.293 36.4051 109.049 37.5024C111.149 35.0334 112.684 32.1399 113.548 29.0224C113.558 28.985 113.569 28.9473 113.579 28.9098L113.608 28.8037C114.646 25.0829 116.659 21.7029 119.441 19.0092L119.66 18.7973L119.815 19.0592C120.668 20.5011 121.688 21.8381 122.856 23.0427C121.067 28.0609 117.586 32.2375 113.118 34.6593Z" fill="black"/>
<path opacity="0.15" d="M123.4 21.3039L123.37 21.41C123.36 21.4475 123.35 21.4852 123.339 21.5227C123.282 21.729 123.22 21.9338 123.157 22.1377C122.533 20.5311 122.095 18.8593 121.851 17.1543L121.828 17.0096L121.948 16.9246C123.449 15.8525 125.079 14.9716 126.8 14.3025C125.255 16.4154 124.103 18.7868 123.4 21.3039Z" fill="black"/>
<path opacity="0.15" d="M103.326 42.1591C104.618 41.4561 105.827 40.6123 106.931 39.6433C104.726 42.1959 103.145 45.2215 102.312 48.483C101.48 51.7445 101.418 55.1534 102.133 58.4424C102.847 61.7315 104.318 64.8114 106.43 67.4409C108.543 70.0703 111.239 72.1779 114.307 73.5984L114.407 73.6441L114.506 73.5995C116.164 72.8551 117.911 72.3276 119.705 72.0301C118.586 72.5971 117.542 73.3015 116.599 74.1268L116.279 74.4011L116.68 74.5324C117.025 74.646 117.371 74.7505 117.707 74.8432C119.681 75.3898 121.722 75.6612 123.771 75.6498C133.081 75.5905 142.463 77.7301 151.657 82.0091C153.234 82.7418 154.869 83.3427 156.547 83.8054C163.855 85.8283 171.658 85.1007 178.461 81.7618C174.625 86.1711 169.61 89.4083 163.998 91.0976C158.386 92.7869 152.407 92.8589 146.755 91.3052C145.078 90.8424 143.443 90.2416 141.866 89.5089C132.672 85.2299 123.29 83.0902 113.979 83.1495C111.93 83.161 109.89 82.8895 107.916 82.343C107.58 82.2503 107.234 82.1458 106.888 82.0322L106.488 81.9008L106.807 81.6265C107.751 80.8012 108.794 80.0968 109.914 79.5299C108.12 79.8273 106.372 80.3548 104.715 81.0992L104.616 81.1439L104.516 81.0981C100.831 79.3931 97.695 76.7038 95.4581 73.3302C93.2213 69.9567 91.9714 66.0316 91.848 61.9931C91.7246 57.9545 92.7325 53.9613 94.7593 50.459C96.7861 46.9568 99.752 44.0832 103.326 42.159L103.326 42.1591Z" fill="black"/>
</g>
</g>
<defs>
<linearGradient id="paint0_linear_29_35336" x1="81.6832" y1="91.2145" x2="50.4442" y2="76.9027" gradientUnits="userSpaceOnUse">
<stop stop-color="#1AB65C"/>
<stop offset="1" stop-color="#39E180"/>
</linearGradient>
<linearGradient id="paint1_linear_29_35336" x1="66.0762" y1="110.739" x2="43.0123" y2="106.738" gradientUnits="userSpaceOnUse">
<stop stop-color="#1AB65C"/>
<stop offset="1" stop-color="#39E180"/>
</linearGradient>
<linearGradient id="paint2_linear_29_35336" x1="70.7016" y1="108.595" x2="41.1493" y2="100.305" gradientUnits="userSpaceOnUse">
<stop stop-color="#1AB65C"/>
<stop offset="1" stop-color="#39E180"/>
</linearGradient>
<linearGradient id="paint3_linear_29_35336" x1="122.747" y1="109.023" x2="90.9243" y2="99.407" gradientUnits="userSpaceOnUse">
<stop stop-color="#1AB65C"/>
<stop offset="1" stop-color="#39E180"/>
</linearGradient>
<linearGradient id="paint4_linear_29_35336" x1="185.995" y1="92.4299" x2="77.3208" y2="55.1637" gradientUnits="userSpaceOnUse">
<stop stop-color="#1AB65C"/>
<stop offset="1" stop-color="#39E180"/>
</linearGradient>
<clipPath id="clip0_29_35336">
<rect width="186" height="156" fill="white"/>
</clipPath>
</defs>
</svg>
