<svg width="86" height="19" viewBox="0 0 86 19" fill="none" xmlns="http://www.w3.org/2000/svg">
<g clip-path="url(#clip0_405_17998)">
<path d="M18.1169 6.93577H21.4973C21.9153 6.93577 21.933 6.67359 21.933 6.53037C21.933 6.32737 21.8286 6.1587 21.4625 6.04862L19.0755 5.35559C18.2829 5.12715 18.0474 4.52763 18.0474 3.69966C18.0474 2.81251 18.4482 2.20412 19.4587 2.20412H23.2223V3.38718H20.0683C19.8419 3.38718 19.6411 3.47181 19.6411 3.77601C19.6411 4.00386 19.7632 4.16484 20.1293 4.27433L22.2722 4.88272C23.1783 5.13603 23.5353 5.57575 23.5353 6.54753C23.5353 7.48558 23.1783 8.11942 22.1416 8.11942H18.1169V6.93577Z" fill="#D9D9D9"/>
<path d="M25.9745 8.11867C24.4064 8.11867 24.0317 7.23152 24.0317 5.8792C24.0317 4.52746 24.4064 3.63972 25.9745 3.63972H28.1785V4.6115H26.4968C25.6084 4.6115 25.4254 5.1187 25.4254 5.8792C25.4254 6.63969 25.6084 7.14689 26.4968 7.14689H28.2743V8.11867H25.9745Z" fill="#D9D9D9"/>
<path d="M31.838 3.63972C32.7526 3.63972 33.267 4.21439 33.267 5.05952V7.27354C33.267 7.82275 32.9619 8.11867 32.3957 8.11867H29.8085C28.9811 8.11867 28.6675 7.64521 28.6675 6.71604C28.6675 5.87091 28.9811 5.3217 29.8085 5.3217H31.9081V5.12758C31.9081 4.77248 31.6988 4.58665 31.3242 4.58665H28.9897V3.63972H31.838ZM30.4529 6.23429C30.1917 6.23429 30.0434 6.41184 30.0434 6.72432C30.0434 7.01136 30.1655 7.20607 30.4443 7.20607H31.603C31.8209 7.20607 31.9081 7.12144 31.9081 6.91016V6.23429H30.4529Z" fill="#D9D9D9"/>
<path d="M33.9985 4.48485C33.9985 3.89303 34.3036 3.63972 34.8699 3.63972H36.7516C37.8408 3.63972 38.5639 4.11319 38.5639 5.25364V8.11808H37.205V5.59216C37.205 4.91629 36.9439 4.6121 36.2464 4.6121H35.6625C35.4447 4.6121 35.3574 4.69673 35.3574 4.90801V8.11867H33.9985V4.48485Z" fill="#D9D9D9"/>
<path d="M41.0645 8.11867C39.5836 8.11867 39.165 7.23153 39.165 5.8792C39.165 4.52747 39.583 3.63973 41.0645 3.63973H42.3971V2.20337H43.756V7.27355C43.756 7.82276 43.4509 8.11867 42.8847 8.11867H41.0645ZM42.3971 4.61151H41.4477C40.6551 4.61151 40.5593 5.23707 40.5593 5.8792C40.5593 6.57223 40.6465 7.1469 41.4654 7.1469H42.0493C42.3105 7.1469 42.3978 7.06226 42.3978 6.80896V4.61151H42.3971Z" fill="#D9D9D9"/>
<path d="M44.4883 3.16686V2.20337H45.8471V3.16686H44.4883ZM44.4883 3.63973H45.8471V8.11808H44.4883V3.63973Z" fill="#D9D9D9"/>
<path d="M46.5791 4.48485C46.5791 3.89303 46.8842 3.63972 47.4504 3.63972H49.3322C50.4214 3.63972 51.1444 4.11319 51.1444 5.25364V8.11808H49.7856V5.59216C49.7856 4.91629 49.5244 4.6121 48.827 4.6121H48.2431C48.0252 4.6121 47.938 4.69673 47.938 4.90801V8.11867H46.5791V4.48485Z" fill="#D9D9D9"/>
<path d="M54.9161 3.63972C55.8307 3.63972 56.3451 4.21439 56.3451 5.05952V7.27354C56.3451 7.82275 56.04 8.11867 55.4738 8.11867H52.8866C52.0592 8.11867 51.7456 7.64521 51.7456 6.71604C51.7456 5.87091 52.0592 5.3217 52.8866 5.3217H54.9863V5.12758C54.9863 4.77248 54.777 4.58665 54.4023 4.58665H52.0678V3.63972H54.9161ZM53.531 6.23429C53.2698 6.23429 53.1216 6.41184 53.1216 6.72432C53.1216 7.01136 53.2436 7.20607 53.5224 7.20607H54.6812C54.899 7.20607 54.9863 7.12144 54.9863 6.91016V6.23429H53.531Z" fill="#D9D9D9"/>
<path d="M59.1244 6.59767C59.1506 6.65686 59.1854 6.75806 59.2464 6.75806C59.2989 6.75806 59.3337 6.65686 59.3599 6.59767L60.5357 3.63972H61.947L60.0915 7.77186C59.917 8.15181 59.56 8.16897 59.2464 8.16897C58.9328 8.16897 58.5667 8.15181 58.3928 7.77186L56.5366 3.63972H57.948L59.1244 6.59767Z" fill="#D9D9D9"/>
<path d="M62.2261 3.16686V2.20337H63.5849V3.16686H62.2261ZM62.2261 3.63973H63.5849V8.11808H62.2261V3.63973Z" fill="#D9D9D9"/>
<path d="M67.357 3.63972C68.2716 3.63972 68.786 4.21439 68.786 5.05952V7.27354C68.786 7.82275 68.4809 8.11867 67.9147 8.11867H65.3275C64.5002 8.11867 64.1865 7.64521 64.1865 6.71604C64.1865 5.87091 64.5002 5.3217 65.3275 5.3217H67.4272V5.12758C67.4272 4.77248 67.2179 4.58665 66.8432 4.58665H64.5087V3.63972H67.357ZM65.9719 6.23429C65.7107 6.23429 65.5625 6.41184 65.5625 6.72432C65.5625 7.01136 65.6845 7.20607 65.9634 7.20607H67.1221C67.3399 7.20607 67.4272 7.12144 67.4272 6.91016V6.23429H65.9719Z" fill="#D9D9D9"/>
<path d="M69.5176 4.48485C69.5176 3.89303 69.8227 3.63972 70.3889 3.63972H72.2707C73.3599 3.63972 74.0829 4.11319 74.0829 5.25364V8.11808H72.724V5.59216C72.724 4.91629 72.4629 4.6121 71.7655 4.6121H71.1815C70.9637 4.6121 70.8764 4.69673 70.8764 4.90801V8.11867H69.5176V4.48485Z" fill="#D9D9D9"/>
<path d="M18.2646 15.4064V10.4043C18.2646 9.77046 18.6216 9.49171 19.1878 9.49171H23.37V10.6748H20.2422C19.9371 10.6748 19.8328 10.776 19.8328 11.0719V11.8578H22.4987V13.0409H19.8328V15.407H18.2646V15.4064Z" fill="#D9D9D9"/>
<path d="M23.9102 10.4552V9.49171H25.269V10.4552H23.9102ZM23.9102 10.9281H25.269V15.4064H23.9102V10.9281Z" fill="#D9D9D9"/>
<path d="M26.001 11.7732C26.001 11.1814 26.3061 10.9281 26.8723 10.9281H28.7541C29.8433 10.9281 30.5663 11.4015 30.5663 12.542V15.4064H29.2075V12.8799C29.2075 12.204 28.9463 11.8999 28.2489 11.8999H27.6649C27.4471 11.8999 27.3598 11.9845 27.3598 12.1958V15.4064H26.001V11.7732Z" fill="#D9D9D9"/>
<path d="M34.3384 10.9281C35.2531 10.9281 35.7675 11.5027 35.7675 12.3479V14.5619C35.7675 15.1111 35.4624 15.407 34.8961 15.407H32.309C31.4816 15.407 31.168 14.9336 31.168 14.0044C31.168 13.1593 31.4816 12.61 32.309 12.61H34.4086V12.4159C34.4086 12.0608 34.1993 11.875 33.8247 11.875H31.4901V10.9287H34.3384V10.9281ZM32.9533 13.5226C32.6922 13.5226 32.5439 13.7002 32.5439 14.0127C32.5439 14.2997 32.6659 14.4944 32.9448 14.4944H34.1035C34.3214 14.4944 34.4086 14.4098 34.4086 14.1985V13.5226H32.9533Z" fill="#D9D9D9"/>
<path d="M36.499 11.7732C36.499 11.1814 36.8041 10.9281 37.3704 10.9281H39.2521C40.3413 10.9281 41.0644 11.4015 41.0644 12.542V15.4064H39.7055V12.8799C39.7055 12.204 39.4443 11.8999 38.7469 11.8999H38.163C37.9451 11.8999 37.8579 11.9845 37.8579 12.1958V15.4064H36.499V11.7732Z" fill="#D9D9D9"/>
<path d="M43.6078 15.4064C42.0397 15.4064 41.665 14.5193 41.665 13.167C41.665 11.8152 42.0397 10.9275 43.6078 10.9275H45.8118V11.8993H44.1301C43.2417 11.8993 43.0587 12.4065 43.0587 13.167C43.0587 13.9275 43.2417 14.4347 44.1301 14.4347H45.9076V15.4064H43.6078Z" fill="#D9D9D9"/>
<path d="M46.4307 10.4552V9.49171H47.7895V10.4552H46.4307ZM46.4307 10.9281H47.7895V15.4064H46.4307V10.9281Z" fill="#D9D9D9"/>
<path d="M51.5621 10.9281C52.4767 10.9281 52.9911 11.5027 52.9911 12.3479V14.5619C52.9911 15.1111 52.686 15.407 52.1198 15.407H49.5326C48.7052 15.407 48.3916 14.9336 48.3916 14.0044C48.3916 13.1593 48.7052 12.61 49.5326 12.61H51.6322V12.4159C51.6322 12.0608 51.423 11.875 51.0483 11.875H48.7138V10.9287H51.5621V10.9281ZM50.177 13.5226C49.9158 13.5226 49.7675 13.7002 49.7675 14.0127C49.7675 14.2997 49.8896 14.4944 50.1684 14.4944H51.3272C51.545 14.4944 51.6322 14.4098 51.6322 14.1985V13.5226H50.177Z" fill="#D9D9D9"/>
<path d="M53.7227 9.49171H55.0815V15.4064H53.7227V9.49171Z" fill="#D9D9D9"/>
<path d="M60.4048 15.4064C58.3576 15.4064 57.7822 14.308 57.7822 12.4491C57.7822 10.5901 58.357 9.49171 60.4048 9.49171H62.9223V10.6748H61.1797C59.786 10.6748 59.3852 11.0127 59.3852 12.4491C59.3852 13.8854 59.786 14.2234 61.1797 14.2234H63.009V15.4064H60.4048Z" fill="#D9D9D9"/>
<path d="M66.6163 10.9281C67.5309 10.9281 68.0453 11.5027 68.0453 12.3479V14.5619C68.0453 15.1111 67.7402 15.407 67.174 15.407H64.5868C63.7594 15.407 63.4458 14.9336 63.4458 14.0044C63.4458 13.1593 63.7594 12.61 64.5868 12.61H66.6864V12.4159C66.6864 12.0608 66.4771 11.875 66.1025 11.875H63.768V10.9287H66.6163V10.9281ZM65.2312 13.5226C64.97 13.5226 64.8217 13.7002 64.8217 14.0127C64.8217 14.2997 64.9438 14.4944 65.2226 14.4944H66.3814C66.5992 14.4944 66.6864 14.4098 66.6864 14.1985V13.5226H65.2312Z" fill="#D9D9D9"/>
<path d="M71.4603 10.9281C72.9412 10.9281 73.3683 11.8152 73.3683 13.1675C73.3683 14.5193 72.9412 15.407 71.4603 15.407H70.1362V16.8434H68.7773V11.7732C68.7773 11.224 69.0824 10.9281 69.6487 10.9281H71.4603ZM70.1356 14.4352H71.0942C71.8868 14.4352 71.9741 13.8014 71.9741 13.1675C71.9741 12.4745 71.8868 11.8999 71.0765 11.8999H70.484C70.2314 11.8999 70.1356 11.9845 70.1356 12.2206V14.4352Z" fill="#D9D9D9"/>
<path d="M73.9692 10.4552V9.49171H75.3281V10.4552H73.9692ZM73.9692 10.9281H75.3281V15.4064H73.9692V10.9281Z" fill="#D9D9D9"/>
<path d="M78.0899 15.4064C77.088 15.4064 76.3735 15.0176 76.3735 13.9192V11.8999H75.7285V10.9281H76.3735V9.49171H77.7323V10.9281H79.0393V11.8999H77.7323V13.438C77.7323 14.1139 78.046 14.4352 78.7867 14.4352H79.0393V15.407H78.0899V15.4064Z" fill="#D9D9D9"/>
<path d="M82.4805 10.9281C83.3952 10.9281 83.9096 11.5027 83.9096 12.3479V14.5619C83.9096 15.1111 83.6045 15.407 83.0382 15.407H80.4511C79.6237 15.407 79.3101 14.9336 79.3101 14.0044C79.3101 13.1593 79.6237 12.61 80.4511 12.61H82.5507V12.4159C82.5507 12.0608 82.3414 11.875 81.9668 11.875H79.6322V10.9287H82.4805V10.9281ZM81.0954 13.5226C80.8343 13.5226 80.686 13.7002 80.686 14.0127C80.686 14.2997 80.808 14.4944 81.0869 14.4944H82.2456C82.4634 14.4944 82.5507 14.4098 82.5507 14.1985V13.5226H81.0954Z" fill="#D9D9D9"/>
<path d="M84.6411 9.49171H86V15.4064H84.6411V9.49171Z" fill="#D9D9D9"/>
<path d="M1.21364 5.76912C1.21364 6.60005 1.44978 7.20193 2.24545 7.43097L4.641 8.12637C5.00832 8.23645 5.11327 8.4063 5.11327 8.60989C5.11327 8.75429 5.09558 9.01707 4.67639 9.01707H1.31859H0V12.307C0 14.5033 0.703533 15.2153 2.08619 16.3847C3.51461 17.5926 6.90719 18.8503 7.05119 18.9035L7.31174 18.9994L7.56557 18.887C7.71201 18.8224 11.165 17.292 12.4354 16.4261C12.8863 16.119 13.4599 15.6775 13.8974 14.9886C14.3666 14.2494 14.5319 13.3717 14.5319 12.307V6.01236H13.2597H9.06294C8.49487 6.01236 8.13608 6.2923 8.13608 6.92792V10.7653H4.18519C2.13073 10.7653 1.55351 11.8679 1.55351 13.7333C1.55351 13.77 1.55351 13.8061 1.55412 13.8416C1.38998 13.4552 1.31859 12.977 1.31859 12.3076V10.2043H5.32256C6.36291 10.2043 6.7217 9.56806 6.7217 8.62705C6.7217 7.65172 6.36352 7.21081 5.45375 6.95633L3.30288 6.34556C2.93556 6.23548 2.81352 6.07391 2.81352 5.84547C2.81352 5.54008 3.01488 5.45545 3.24186 5.45545H14.5319V4.26825H2.62986C1.61575 4.26825 1.21364 4.87901 1.21364 5.76912ZM7.26719 17.5932C6.86143 17.4358 6.03281 17.1044 5.17795 16.7013H8.13669V17.1961C7.77486 17.3636 7.46855 17.5027 7.26719 17.5932ZM9.71034 8.38677V7.59787C9.71034 7.30136 9.81529 7.19957 10.121 7.19957H13.2579V12.3076C13.2579 14.1293 12.4366 14.8418 11.6672 15.3662C11.2321 15.6627 10.4828 16.0598 9.71034 16.4427V9.57398H12.386V8.38677H9.71034ZM4.96317 11.9525H8.13669V15.5141H4.96317C3.56404 15.5141 3.16193 15.175 3.16193 13.7333C3.16254 12.2916 3.56465 11.9525 4.96317 11.9525Z" fill="#C1272D"/>
<path d="M13.1243 0.85874C12.2298 1.27065 9.73962 1.75121 7.71018 0.736232L7.26536 0.513705L6.8242 0.740375C5.17124 1.59083 2.59264 1.5133 1.40646 0.85874C0.688278 0.461625 0 0 0 0V3.70543H1.32347V2.25427C3.33461 2.83899 5.56175 2.74075 7.27268 1.99268C9.2222 2.86207 11.442 2.87509 13.2146 2.25663V3.70543H14.5319V0C14.5319 0 13.7003 0.59301 13.1243 0.85874Z" fill="#C1272D"/>
</g>
<defs>
<clipPath id="clip0_405_17998">
<rect width="86" height="19" fill="white"/>
</clipPath>
</defs>
</svg>
